<svg width="47" height="44" viewBox="0 0 47 44" fill="none" xmlns="http://www.w3.org/2000/svg">
<path d="M3.52986 41.6051C3.53371 40.005 3.76283 38.4185 4.20953 36.8877C5.0625 33.9649 6.62981 31.3463 8.87101 29.109C9.36007 28.6199 9.88764 28.1675 10.3979 27.7285C10.6309 27.5282 10.8638 27.328 11.0949 27.1239L11.4203 26.8351L12.7277 28.0346C15.1171 30.2277 20.7144 35.3647 22.6706 37.1458C23.3349 37.7503 24.2302 37.7542 24.8983 37.1573C25.8245 36.3274 34.8759 27.9326 35.6596 27.1759L35.9099 26.9333L36.2796 27.1277C36.32 27.147 36.3643 27.1701 36.4163 27.2086C41.2992 30.9632 43.8408 35.8172 43.9678 41.6378C43.9717 41.8284 44.0044 42.0094 44.0602 42.1442C44.3317 42.8027 45.0538 43.1762 45.7797 43.0299C46.5306 42.8797 47.01 42.304 47.0004 41.5646C46.9792 39.9396 46.7963 38.457 46.4439 37.0283C45.5659 33.4701 43.7753 30.2739 41.124 27.5282C38.7287 25.0483 35.8502 23.1864 32.3209 21.8328C32.1476 21.7654 31.9704 21.7057 31.7837 21.6402C31.6913 21.6075 31.595 21.5748 31.4949 21.5401L30.7574 21.2802L31.3755 20.6871C31.4256 20.6371 31.4641 20.6005 31.5045 20.5697C32.3652 19.9189 33.0814 19.218 33.6956 18.4286C35.6153 15.9564 36.3778 13.3455 36.0254 10.4458C35.6615 7.44594 34.2117 4.9448 31.7182 3.00973C28.8666 0.797411 25.5048 -0.0362997 21.7233 0.529778C18.4539 1.01884 15.7833 2.5303 13.7828 5.01796C11.7457 7.55183 10.9948 10.4323 11.5531 13.5784C11.971 15.9409 13.157 18.0223 15.0805 19.7649C15.3116 19.9728 15.558 20.175 15.818 20.3868C15.947 20.4927 16.0798 20.6005 16.2165 20.7141L16.8462 21.2378L15.9605 21.5805C15.8815 21.6114 15.8199 21.6364 15.7544 21.6576C13.3034 22.4836 11.0564 23.66 9.07318 25.1542C5.59585 27.7766 3.10818 31.0691 1.68144 34.9411C0.872755 37.1323 0.478042 39.3793 0.503073 41.6185C0.504998 41.8092 0.526179 41.9593 0.564688 42.0787C0.786113 42.7488 1.50237 43.1454 2.2687 43.0222C3.01962 42.9047 3.52793 42.3348 3.52986 41.6051ZM15.6254 15.9294C13.7905 13.0258 14.0562 9.25199 16.2878 6.53906C17.9263 4.54623 20.1078 3.39867 22.7707 3.13296C25.5742 2.85185 28.0599 3.6124 30.1548 5.39342C32.1996 7.13209 33.2047 9.34056 33.1411 11.9553C33.093 13.9693 32.3478 15.7619 30.9269 17.283C29.0111 19.3355 26.6312 20.3098 23.4369 20.3483H23.4234H23.41C20.0559 20.2039 17.3622 18.677 15.6254 15.9294ZM14.707 25.0502C17.651 23.7159 20.62 23.0689 23.7835 23.0689C23.7854 23.0689 23.7874 23.0689 23.7912 23.0689C26.9431 23.0689 29.9122 23.7178 32.8638 25.0521L33.5281 25.3525L23.7854 34.2923L14.0427 25.3525L14.707 25.0502Z" fill="white"/>
</svg>
